<?xml version="1.0" encoding="UTF-8" standalone="no"?>
<!-- Created with Inkscape (http://www.inkscape.org/) -->

<svg
   width="251.82979mm"
   height="47.354805mm"
   viewBox="0 0 251.82979 47.354805"
   version="1.1"
   id="svg1"
   inkscape:version="1.4.3 (0d15f75, 2025-12-25)"
   sodipodi:docname="logo-text.svg"
   xmlns:inkscape="http://www.inkscape.org/namespaces/inkscape"
   xmlns:sodipodi="http://sodipodi.sourceforge.net/DTD/sodipodi-0.dtd"
   xmlns="http://www.w3.org/2000/svg"
   xmlns:svg="http://www.w3.org/2000/svg">
  <sodipodi:namedview
     id="namedview1"
     pagecolor="#ffffff"
     bordercolor="#000000"
     borderopacity="0"
     inkscape:showpageshadow="2"
     inkscape:pageopacity="0.0"
     inkscape:pagecheckerboard="0"
     inkscape:deskcolor="#d1d1d1"
     inkscape:document-units="mm"
     showgrid="true"
     inkscape:zoom="0.7349537"
     inkscape:cx="476.22047"
     inkscape:cy="89.12126"
     inkscape:window-width="1920"
     inkscape:window-height="1027"
     inkscape:window-x="1072"
     inkscape:window-y="509"
     inkscape:window-maximized="1"
     inkscape:current-layer="svg1" />
  <defs
     id="defs1" />
  <g
     id="g3"
     transform="matrix(0.26458333,0,0,0.26458333,-1288.4717,-615.00205)"
     style="opacity:1;stroke-width:1.00157481;stroke-dasharray:none">
    <path
       style="fill:#ff7c5b;fill-opacity:1;stroke:#00000f;stroke-width:1.00157481;stroke-opacity:1;stroke-dasharray:none"
       d="m 4870.2143,2326.814 c 0,0 24.8813,-1.9377 49.2177,-1.9954 15.3683,-0.037 25.2737,0.4226 34.7855,3.179 13.6242,3.9481 17.9644,5.2471 26.1769,16.2302 13.316,17.8083 9.2695,37.1189 5.7367,51.3349 -3.5328,14.216 -17.7917,24.7174 -27.5484,28.9208 -13.8643,5.973 -44.6038,6.1381 -44.6038,6.1381 l -0.6479,-23.2198 c 0,0 24.7256,-1.0605 32.2326,-4.6167 17.285,-8.1882 17.207,-23.4559 13.3148,-37.2706 -3.6491,-12.9519 -22.6832,-15.417 -30.017,-15.6826 -14.1402,-0.5121 -29.6467,0.4686 -29.6411,2.1251 l 0.4951,146.693 -29.1836,-0.01 z"
       id="path1"
       sodipodi:nodetypes="cssszsccssssccc"
       inkscape:label="P" />
    <path
       style="fill:#ff7c5b;fill-opacity:1;stroke:#00000f;stroke-width:1.00157481;stroke-opacity:1;stroke-dasharray:none"
       d="m 5007.2324,2370.2457 25.537,0.06 0.1416,9.5334 c 0,0 2.9573,-4.4729 10.3982,-7.3755 9.4038,-3.6683 19.6095,-2.3455 24.9517,-1.3312 3.7561,0.7132 7.8641,1.8078 12.3476,3.3783 l -0.2058,23.0988 c -0.1537,-0.092 -6.9826,-3.1636 -14.7997,-5.0484 -4.9939,-1.2041 -13.0965,-1.0806 -19.949,0.5558 -6.8526,1.6364 -12.4549,4.7858 -12.4481,9.6336 l 0.136,97.1184 -26.1027,-0.3869 z"
       id="path5-2"
       sodipodi:nodetypes="cccssccsssccc"
       inkscape:label="r" />
    <path
       style="fill:#ff7c5b;fill-opacity:1;stroke:#000000;stroke-width:1.00157481;stroke-opacity:1;stroke-dasharray:none"
       d="m 5137.917,2466.9766 -18.7468,-36.9481 18.7376,-37.8156 35.8365,0.068 18.8085,36.8372 -19.0745,37.4126 -26.9566,0.4626 -7.4697,29.6276 c 19.7555,4.3251 35.2919,1.0156 44.0079,-3.3009 12.7167,-7.4376 18.1867,-15.1593 23.6253,-25.2528 4.9181,-14.3374 7.0839,-22.2457 6.4689,-38.8257 -0.4487,-12.0932 -0.1683,-18.9306 -10.9325,-39.0075 -6.6918,-9.9812 -14.7258,-17.5803 -28.604,-21.1179 -13.3009,-2.977 -27.6821,-2.179 -39.8874,1.764 -10.6593,2.6531 -21.6208,12.8437 -26.3819,20.687 -3.837,5.2612 -9.3819,28.8605 -9.468,40.0203 -0.1394,18.0983 2.8944,28.259 6.9659,37.1765 4.4976,7.3991 9.2571,16.4175 24.9569,25.0822 z"
       id="path3"
       sodipodi:nodetypes="ccccccccccsccccsccc"
       inkscape:label="o" />
    <path
       style="fill:#ff7c5b;fill-opacity:1;stroke:#000000;stroke-width:1.00157481;stroke-opacity:1;stroke-dasharray:none"
       d="m 5242.1639,2355.7653 27.1346,-0.3519 -0.036,76.9643 39.845,-41.1964 33.1986,1.0331 -45.4804,44.9328 61.4156,61.6979 -33.3858,-0.5509 -45.1472,-46.9022 -10.4284,9.8694 0.5738,37.4712 -26.5597,-0.1367 z"
       id="path4"
       sodipodi:nodetypes="ccccccccccccc"
       inkscape:label="k" />
    <path
       style="fill:#78ac7a;fill-opacity:1;stroke:#00000f;stroke-width:1.00157481;stroke-opacity:1;stroke-dasharray:none"
       d="m 5376.8258,2368.8545 25.537,0.06 0.1416,9.5334 c 0,0 2.9573,-4.473 10.3982,-7.3755 10.2175,-3.9857 21.3886,-2.0075 24.9517,-1.331 3.7562,0.7131 7.8641,1.8077 12.3476,3.3781 l -0.2058,23.0988 c -0.1537,-0.092 -6.9826,-3.1636 -14.7997,-5.0484 -4.9938,-1.2041 -13.0965,-1.0806 -19.949,0.5558 -6.8525,1.6365 -12.4549,4.7858 -12.4481,9.6336 l 0.136,97.1184 -26.1027,-0.3869 z"
       id="path5"
       sodipodi:nodetypes="cccssccsssccc"
       inkscape:label="r" />
    <path
       style="fill:#78ac7a;fill-opacity:1;stroke:#00000f;stroke-width:1.00157481;stroke-opacity:1;stroke-dasharray:none"
       d="m 5581.0447,2461.5513 -0.2104,27.9765 c 0,-0.4334 -12.3763,5.7524 -19.3631,7.5233 -19.211,4.8695 -35.2787,3.9274 -46.0919,1.9927 -15.5179,-2.7768 -19.172,-7.294 -24.9163,-10.3704 -5.0016,-2.6785 -15.3229,-15.8467 -17.3641,-20.0223 -2.3724,-4.8529 -6.4545,-18.1888 -6.5267,-29.3134 -0.057,-8.6012 0.061,-21.0039 2.3874,-30.5855 1.7032,-7.0153 5.8905,-15.0072 8.8271,-19.0513 2.9369,-4.044 5.1688,-6.5245 9.9413,-10.2241 5.5631,-4.3131 9.9907,-7.1438 19.7224,-9.9824 18.5854,-5.4207 36.9558,-3.1484 48.6338,2.0817 0,0 12.0345,5.9888 20.8191,20.327 3.617,5.9036 8.36,26.9931 6.5751,47.883 l -80.8355,-0.6592 0.5093,-21.9748 54.004,0.2365 c 0,0 -0.3703,-12.9731 -7.584,-19.8699 -9.9499,-9.5127 -23.1265,-9.2146 -32.052,-7.0683 -9.7511,2.3447 -22.6868,14.9553 -23.5202,26.655 l -0.7863,21.8757 c -0.046,1.2673 0.8049,10.8997 3.7012,16.2933 2.8497,5.3071 6.9219,11.1636 12.5588,14.9832 7.1766,4.8629 14.4377,7.1597 31.7621,5.9153 9.3977,-1.7098 28.2568,-6.9835 34.0219,-14.6585 z"
       id="path6"
       sodipodi:nodetypes="cssssssszsscsccccsscsssccc"
       inkscape:label="e" />
    <path
       style="display:inline;fill:#78ac7a;fill-opacity:1;stroke:#000000;stroke-width:1.00157481;stroke-opacity:1;stroke-dasharray:none"
       d="m 5698.2466,2403.1726 -5.201,-0.1536 c -12.9687,-9.8174 -26.7912,-12.782 -33.3118,-13.6587 -12.5986,0.123 -18.0874,0.9644 -22.6327,2.476 -6.3743,2.12 -10.8043,6.8148 -8.9274,14.9134 1.3688,5.9066 6.3819,8.9343 16.1139,11.289 10.5953,2.5638 27.9314,5.7627 27.9314,5.7627 11.4291,2.8502 26.5892,10.6198 29.7835,25.947 0.2176,1.0443 3.9526,19.2186 -3.8771,28.9934 -5.0287,6.2778 -7.1037,11.5286 -24.5881,18.8668 -7.781,3.3465 -26.6938,5.0493 -40.0082,3.0023 -12.6827,-1.9497 -23.9302,-5.6542 -33.7602,-10.7234 l 0.061,-28.434 5.2738,0.062 c 9.6304,8.8018 29.8818,15.4782 39.9055,16.1824 2.9731,0.209 19.2075,-0.03 24.2341,-3.8582 5.4809,-4.1752 10.8886,-13.2299 2.1374,-20.9221 -4.6878,-4.1206 -11.653,-4.5174 -20.995,-6.6079 -10.3269,-2.3107 -21.8773,-3.746 -30.6467,-8.2791 -8.0165,-3.2439 -17.3398,-12.9393 -19.0927,-25.65 -0.7026,-12.3872 0.453,-20.6982 7.0063,-28.6184 5.1069,-6.1722 8.6172,-8.9112 17.0925,-13.0135 4.3106,-2.0865 18.7845,-6.1766 29.8402,-5.629 21.4091,0.4394 31.2305,6.2543 43.8366,10.2412 z"
       id="path7"
       sodipodi:nodetypes="cccssscsscscccssssccssccc"
       inkscape:label="s" />
    <path
       style="display:inline;fill:#78ac7a;fill-opacity:1;stroke:#000000;stroke-width:1.00157481;stroke-opacity:1;stroke-dasharray:none"
       d="m 5816.3444,2404.6386 -5.2009,-0.1537 c -12.9687,-9.8174 -26.7913,-12.7821 -33.3118,-13.6585 -12.5985,0.123 -18.0875,0.964 -22.6327,2.4757 -6.3744,2.12 -10.8043,6.815 -8.9274,14.9137 1.3688,5.9063 6.3821,8.9343 16.1139,11.289 10.5953,2.5636 27.9314,5.7624 27.9314,5.7624 11.429,2.8504 26.5891,10.62 29.7836,25.9471 0.2175,1.0443 3.9527,19.2187 -3.8771,28.9933 -5.0286,6.2779 -7.1039,11.5287 -24.5882,18.8671 -7.781,3.3463 -26.6937,5.0492 -40.0082,3.0021 -12.6827,-1.9497 -23.9302,-5.654 -33.7601,-10.7234 l 0.061,-28.434 5.2738,0.062 c 9.6302,8.8019 29.8818,15.4782 39.9054,16.1824 2.9732,0.209 19.2076,-0.03 24.2342,-3.8582 5.4808,-4.1754 10.8887,-13.2298 2.1374,-20.9221 -4.6879,-4.1208 -11.6531,-4.5172 -20.9951,-6.6078 -10.3269,-2.3108 -21.8773,-3.7462 -30.6467,-8.2791 -8.0164,-3.2439 -17.3398,-12.9394 -19.0928,-25.6502 -0.7025,-12.387 0.4532,-20.6981 7.0064,-28.6185 5.1068,-6.1721 8.6171,-8.911 17.0926,-13.0134 4.3105,-2.0865 18.7846,-6.1764 29.8402,-5.6291 21.4091,0.4396 31.2304,6.2543 43.8368,10.2413 z"
       id="path7-1"
       sodipodi:nodetypes="cccssscsscscccssssccssccc"
       inkscape:label="s" />
  </g>
</svg>
